<svg xmlns="http://www.w3.org/2000/svg" viewBox="0 0 256 256" role="img" aria-label="Xuewen">
  <rect width="256" height="256" rx="56" ry="56" fill="#9e2b25"/>
  <g transform="translate(128.0,128.0) scale(0.16765999235419196,-0.16765999235419196) translate(-497.66107825922387,-378.5)"><path d="M218 677V648H378C391 648 400 653 402 664C377 689 335 722 335 722L299 676ZM215 570V542H381C394 542 404 547 406 558C380 584 338 619 338 619L300 570ZM134 468V439H869V468ZM816 468C808 437 791 380 780 348L789 341C831 359 895 393 933 416C953 417 963 419 971 427L867 527L806 467ZM421 791 412 780C455 756 514 709 539 674C610 650 628 782 421 790ZM425 620 416 610C462 582 521 530 543 488C619 456 644 603 424 620ZM337 848C312 824 256 779 213 755L219 744C283 749 357 765 396 777C411 772 422 773 427 780ZM627 675 636 646H798V675ZM624 569 633 541H793V569ZM618 781 627 753H801V781ZM167 803 177 452H280L271 756C291 760 302 766 304 776ZM724 781 708 452H814L828 739C847 742 855 745 862 753L758 833L714 781ZM52 180 60 152H914C929 152 939 157 942 168C900 207 829 264 829 264L767 180ZM442 260V53C442 41 437 37 422 37C401 37 288 44 288 44V30C340 21 363 8 380 -9C396 -28 401 -54 404 -91C538 -79 556 -34 556 47V222C578 225 588 232 590 246ZM629 348C601 316 543 258 498 225H512C589 243 685 278 749 303C770 304 780 307 789 315L681 410L617 349ZM236 349 245 320H695V349ZM123 531C124 474 96 436 68 423C-16 379 34 282 110 314C179 343 182 432 134 531ZM528 839C501 782 445 713 387 669L397 654C470 684 550 736 588 785C606 781 617 783 622 792ZM543 664C512 600 446 530 377 488L386 473C471 499 561 554 604 611C621 607 632 609 637 619Z" fill="#faf9f7"/></g>
</svg>
